<?xml version="1.0" encoding="UTF-8" standalone="no"?>
<!DOCTYPE svg PUBLIC "-//W3C//DTD SVG 1.1//EN" "http://www.w3.org/Graphics/SVG/1.1/DTD/svg11.dtd">
<svg width="100%" height="100%" viewBox="0 0 822 827" version="1.1" xmlns="http://www.w3.org/2000/svg" xmlns:xlink="http://www.w3.org/1999/xlink" xml:space="preserve" xmlns:serif="http://www.serif.com/" style="fill-rule:evenodd;clip-rule:evenodd;stroke-linejoin:round;stroke-miterlimit:2;">
    <g id="Artboard1" transform="matrix(0.528892,0,0,0.583211,1478.599684,217.027208)">
        <rect x="-2795.655" y="-372.125" width="1554.121" height="1416.414" style="fill:none;"/>
        <g transform="matrix(1.890745,0,0,1.714645,-3206.244921,-720.580169)">
            <path d="M620.5,997.9C606.4,995.8 591.7,984.5 585.1,970.7L582.1,964.3L573.3,964.3C558.4,964.1 546.8,959.1 537.5,948.8C532.1,942.8 518.2,924.4 511.5,914.3C508.9,910.3 506.4,907 506.1,907C505.8,907 494.3,908.2 480.7,909.7C458.7,912.1 455,912.2 448.7,911.2C437.5,909.3 429.8,905.1 421.3,896.5L413.9,889L409.2,890.6C402,893.1 389.1,892.9 380.5,890.2C367.8,886.1 355.7,874.6 350.9,862C347.9,854.2 347.3,841.9 349.4,833.1L351.1,826.1L344.2,819.3C327.2,802.6 324.8,792.6 329,756.5C330.1,747.2 331,738.3 331,736.8C331,733.9 329.9,732.9 307,714.9C292.3,703.3 287.3,697.8 283.1,689C279.7,681.9 279.5,680.8 279.1,669.5L278.8,657.5L273.8,655.1C271,653.8 266.1,650.2 262.9,647C247.3,631.7 244.2,607.6 255.4,588.5C258.4,583.4 268.1,574.2 274.1,570.7L278.7,568L279.2,557.2C280.2,536.7 284.9,529.1 309.5,508.4C319.2,500.2 328.1,492.8 329.3,491.8L331.4,490.2L329,465.1C327,444 326.8,439.1 327.8,433.8C329.7,423.5 334.3,415.6 343.6,406.2L351.9,397.8L350.3,391.7C347.8,381.9 348.9,369 352.9,360.4C358.9,347.5 369.6,337.8 381.8,333.9C389.8,331.4 403.2,331.1 410,333.2L414.5,334.6L422,327C432.6,316.2 443.8,311.1 457,311C460,311 472.6,312.1 484.9,313.5C507,316 507.3,316 508.6,314.1C514.8,305.3 536.9,278.4 540.9,274.8C550.2,266.4 561,262.7 574.7,263.1L582.9,263.4L586.8,257.5C598.5,239.5 618.2,230.9 638.2,235.1C650.2,237.6 663.7,247.5 670.5,258.8L673.4,263.7L682.3,263.2C693.2,262.6 701.6,264.7 709.8,269.9C717,274.6 723,281.2 737.6,300.6C744,309.1 750,316 750.8,316C751.6,316 761.4,314.8 772.4,313.4C809.6,308.6 818.8,310.6 834.6,326.4L842.6,334.5L847.1,333.2C854,331.1 869.4,331.4 876.2,333.8C899.2,342 912.5,367.5 906.4,391.7L904.8,398.1L907.7,400.2C919.1,408.8 927.4,422.3 929.3,435.3C930.2,442 928.9,459.4 925.3,485.6L924.8,489.6L942.1,504.1C951.7,512 961.6,520.6 964.1,523.2C972.9,532.3 978.8,549.2 977.6,561.6L977,567.8L982.7,571C990.3,575.3 998.8,584.1 1002.3,591.4C1013.3,613.9 1006.7,638.8 986,652.5C982.3,655 978.7,657 978.1,657C977.4,657 977,660.4 977,667.4C977,674.9 976.5,679.6 975,684.2C971.7,695 967.3,700 946.5,716.8C936,725.2 926.9,732.5 926.1,732.9C924.5,733.8 924.6,734.1 928.6,768.3C929.9,779.6 929.9,783.4 929,789.1C927.2,799.7 922.1,809 912.8,818.4L904.9,826.4L906.4,832.7C914.8,866.1 889.2,896.3 855.9,892C851.8,891.5 847.1,890.6 845.3,890C842.3,888.9 842,889 834.3,896.7C825.1,905.9 818,909.8 807.2,911.4C801.1,912.2 795.8,912 774.7,909.8C760.9,908.3 749.5,907.2 749.4,907.3C746.5,912.4 717.5,949.2 713.9,952.4C704.4,960.9 690,965.7 678,964.3C673.4,963.8 673.3,963.8 672.1,967.1C670.2,972.5 663.1,982.8 658.1,987.1C647.9,996.2 634.5,1000 620.5,997.9ZM862.7,854.4C867.1,851.1 869,847.1 869,841.5C869,835 866.5,830.4 861.5,827.5C854.2,823.2 846.8,824.4 840.6,830.9C838.2,833.4 837.6,835.1 837.2,839.8C836.6,848.5 839.8,853.7 847.7,856.6C852.7,858.4 858.6,857.6 862.7,854.4ZM636.1,303.7C639.8,301.3 644,294 644,290C644,286 639.8,278.7 636.1,276.3C630,272.2 619.7,273.8 615.2,279.5C610.2,285.8 610.2,294.2 615.2,300.5C619.7,306.2 630,307.8 636.1,303.7ZM313.1,626.7C323.7,619.6 323.7,605.1 313.1,599.2C297.3,590.3 281.4,608.1 291.9,622.8C296.3,629.1 306.8,631 313.1,626.7ZM789.8,358.7L783.5,358.5L783.2,451.3L783,544L763.3,543.8L743.7,543.5L741.4,534.5C738.3,522.8 728.9,503.7 720.7,493C708.2,476.4 689.3,461 670.4,452C635.7,435.5 594.6,438.5 574,459C564.2,468.8 560,479.3 560,494.1C560,509.1 564.1,518.4 575.5,528.8C587.4,539.6 605,548.5 661,571.9C698.6,587.7 728.6,602.3 743.3,612.1C774.5,632.9 794,660.9 800.2,693.7C802.2,704.1 801.9,730.7 799.7,741C794,767.5 782.7,788.5 764.1,807.1C739.6,831.6 705,846.8 664.1,850.9C628.2,854.6 596.9,849.2 558,832.5C542.6,825.9 537.6,825.2 531.8,828.8C526.3,832.2 523.6,838.7 523.6,848.5C523.6,858.3 526.1,866.2 532.8,877.9C541.2,892.4 567.5,923.4 573.4,925.7C577.5,927.2 589.5,927.3 592.3,925.8C593.5,925.2 599.2,920.2 605,914.8C616.8,903.6 619.1,902.1 625.9,901.3C633.1,900.5 638.3,903.3 649.7,914.3C655.1,919.4 660.6,924.4 662,925.3C665.4,927.7 678.3,927.6 682.5,925.2C685.9,923.3 694,914.8 717.3,888.7L733.1,871L763.2,871C797.5,871 797.6,871 807.1,862C813.1,856.3 814,853 814,836C814,820.4 814.9,816.3 819.3,811.3C824.4,805.6 826.8,805 846.7,805C869.3,805 870.5,804.5 877.9,793.5L883,785.8L883,754.4C883,725.5 883.1,722.9 884.8,721.3C885.8,720.3 896.9,709.8 909.4,698C921.9,686.2 932.8,675.4 933.5,674C935.6,670 937.2,660.1 936.5,656.2C935.4,650.5 933.9,648.2 922.5,636.1C911.1,623.9 908.8,620.2 908.8,613.5C908.8,606.5 911.4,602.4 923.9,589.6C936.3,576.8 938,574 938,565.9C938,564 937.3,560.1 936.5,557.2C935.1,552.5 933.2,550.5 909,527.4L883,502.7L883,439.1L878.8,432.9C876.4,429.5 872.8,425.3 870.7,423.6L866.8,420.5L848.1,420C829.7,419.5 829.3,419.4 825.2,416.7C818.2,412.1 816.7,407.9 816,391C815.3,374.5 814.3,371.2 808.4,366.1C803,361.3 797.2,359 789.8,358.7ZM722,349.2C715.7,337.3 686.244,304.5 683.706,304.5L666.3,304.5L653.4,316.9C638.5,331.1 635.5,333 627.2,333C619.7,333 617,331.3 603,317.5C597.2,311.7 590.8,306.4 588.8,305.5C584.1,303.6 578.8,303.6 572.2,305.5C567.3,307 566.1,308.2 549.1,327.3C539.3,338.4 529.5,349.6 527.4,352.2L523.5,356.9L492,357C456.7,357.1 456.3,357.1 448,364.6C441.3,370.7 440.8,372.4 440.1,391.5C439.4,410.4 439.1,411.5 432.4,416.7C428.7,419.5 428.6,419.5 410.1,420C390,420.6 388.1,421.1 382.9,426.7C381.4,428.2 378.8,431.7 377.1,434.4L374,439.4L374,502.7L347.8,527.7C326.8,547.6 321.2,553.4 320.2,556.5C318.5,561.5 318.4,571 320,574.1C320.7,575.4 326.5,581.9 333,588.5C339.4,595.1 345.5,602.1 346.5,604C348.9,608.4 349,617.4 346.8,621.5C345.9,623.2 340.1,629.9 334,636.5C327.9,643.1 322.1,649.9 321.2,651.5C319,655.5 319.2,665.2 321.6,671.1C323.1,674.9 328.2,680.3 348.3,699.5L373,723.2L373,752.9C373,786.3 372.8,785.1 380.9,794.8C387.1,802.1 388.9,802.7 407.6,803.3C424.5,803.8 427.6,804.6 432.8,809.4C437.8,813.9 438.4,816.5 439,834.5C439.5,850.8 439.6,851.7 442.2,856.2C445.9,862.3 455,867.8 461.8,868L464,868L464,683L507.8,683L509,689.7C510.9,701.1 515.8,714.9 523,729.5C543.8,771.6 578,798.2 621,805.6C632.4,807.6 653.1,807 662.4,804.5C681.5,799.3 697.9,784.8 704.2,767.5C706.8,760.3 707.8,743 706.1,735C701.4,713.2 681.3,697 637.5,679.7C581.1,657.4 567.7,651.9 554.3,645.3C515.2,626.2 488.8,602.4 476,574.8C468.4,558.5 464.8,536 466.9,517.7C471.8,473.6 498.3,437.2 540.7,416.1C563.6,404.8 583.4,399.8 612,398.4C633.3,397.3 653.5,400.3 678.5,408.3C702.2,415.9 709.3,416.4 716.8,411C725.605,404.62 729.85,389.772 728.861,374.405C728.3,365.687 726.054,356.801 722,349.2ZM633.3,959.6C644.6,954.8 646.9,940.4 637.8,932.5C631,926.8 622.5,927.1 616.3,933.3C604.2,945.3 617.7,966.3 633.3,959.6ZM410,396.2C411.4,395.1 413.6,392.8 414.8,390.9C416.8,388.1 417.1,386.5 416.8,381.7C416.5,378.1 415.6,375 414.4,373.2C412,370 404.6,366 401,366C397,366 389.7,370.2 387.3,373.9C384.6,377.9 384.2,385.6 386.4,389.8C388.3,393.5 392.2,396.9 395.6,398C399.6,399.3 407,398.3 410,396.2ZM864,396.5C868.2,394.3 871.3,389.4 871.8,383.9C872.6,375.5 868.3,369.4 860,366.9C851.7,364.4 842.1,370.2 840,378.9C839,383.2 839.1,384.4 840.8,388.2C845.2,398 854.6,401.4 864,396.5ZM406.6,856.1C414,852.7 417.9,845 415.9,837.5C414.4,832 412.6,829.7 407.9,827.1C397.3,821.1 384,829 384,841.2C384,848.7 387.9,854.5 394.5,856.8C398.9,858.3 402,858.2 406.6,856.1ZM961.1,626.7C968.7,621.6 971.1,613 967.1,605.2C961.9,595 945.9,594.3 939.3,604C936.1,608.6 936.1,617.5 939.2,621.6C943.5,627.2 946.6,628.8 953.1,628.9C956.3,629 958.7,628.3 961.1,626.7Z" style="fill:rgb(67,8,4);"/>
        </g>
    </g>
</svg>
