<?xml version="1.0" encoding="UTF-8" standalone="no"?><!DOCTYPE svg PUBLIC "-//W3C//DTD SVG 1.1//EN" "http://www.w3.org/Graphics/SVG/1.1/DTD/svg11.dtd"><svg width="100%" height="100%" viewBox="0 0 3425 3425" version="1.1" xmlns="http://www.w3.org/2000/svg" xmlns:xlink="http://www.w3.org/1999/xlink" xml:space="preserve" xmlns:serif="http://www.serif.com/" style="fill-rule:evenodd;clip-rule:evenodd;stroke-linejoin:round;stroke-miterlimit:2;"><rect id="dark-fade" x="0" y="0" width="3424.842" height="3425" style="fill:none;"/><g><path d="M1680.594,3302.677c-58.75,-8.75 -120,-55.833 -147.5,-113.333l-12.5,-26.667l-36.667,0c-62.083,-0.833 -110.417,-21.667 -149.167,-64.583c-22.5,-25 -80.417,-101.667 -108.333,-143.75c-10.833,-16.667 -21.25,-30.417 -22.5,-30.417c-1.25,0 -49.167,5 -105.833,11.25c-91.667,10 -107.083,10.417 -133.333,6.25c-46.667,-7.917 -78.75,-25.417 -114.167,-61.25l-30.833,-31.25l-19.583,6.667c-30,10.417 -83.75,9.583 -119.583,-1.667c-52.917,-17.083 -103.333,-65 -123.333,-117.5c-12.5,-32.5 -15,-83.75 -6.25,-120.417l7.083,-29.167l-28.75,-28.333c-70.833,-69.583 -80.833,-111.25 -63.333,-261.667c4.583,-38.75 8.333,-75.833 8.333,-82.083c0,-12.083 -4.583,-16.25 -100,-91.25c-61.25,-48.333 -82.083,-71.25 -99.583,-107.917c-14.167,-29.583 -15,-34.167 -16.667,-81.25l-1.25,-50l-20.833,-10c-11.667,-5.417 -32.083,-20.417 -45.417,-33.75c-65,-63.75 -77.917,-164.167 -31.25,-243.75c12.5,-21.25 52.917,-59.583 77.917,-74.167l19.167,-11.25l2.083,-45c4.167,-85.417 23.75,-117.083 126.25,-203.333c40.417,-34.167 77.5,-65 82.5,-69.167l8.75,-6.667l-10,-104.583c-8.333,-87.917 -9.167,-108.333 -5,-130.417c7.917,-42.917 27.083,-75.833 65.833,-115l34.583,-35l-6.667,-25.417c-10.417,-40.833 -5.833,-94.583 10.833,-130.417c25,-53.75 69.583,-94.167 120.417,-110.417c33.333,-10.417 89.167,-11.667 117.5,-2.917l18.75,5.833l31.25,-31.667c44.167,-45 90.833,-66.25 145.833,-66.667c12.5,0 65,4.583 116.25,10.417c92.083,10.417 93.333,10.417 98.75,2.5c25.833,-36.667 117.917,-148.75 134.583,-163.75c38.75,-35 83.75,-50.417 140.833,-48.75l34.167,1.25l16.25,-24.583c48.75,-75 130.833,-110.833 214.167,-93.333c50,10.417 106.25,51.667 134.583,98.75l12.083,20.417l37.083,-2.083c45.417,-2.5 80.417,6.25 114.583,27.917c30,19.583 55,47.083 115.833,127.917c26.667,35.417 51.667,64.167 55,64.167c3.333,0 44.167,-5 90,-10.833c155,-20 193.333,-11.667 259.167,54.167l33.333,33.75l18.75,-5.417c28.75,-8.75 92.917,-7.5 121.25,2.5c95.833,34.167 151.25,140.417 125.833,241.25l-6.667,26.667l12.083,8.75c47.5,35.833 82.083,92.083 90,146.25c3.75,27.917 -1.667,100.417 -16.667,209.583l-2.083,16.667l72.083,60.417c40,32.917 81.25,68.75 91.667,79.583c36.667,37.917 61.25,108.333 56.25,160l-2.5,25.833l23.75,13.333c31.667,17.917 67.083,54.583 81.667,85c45.833,93.75 18.333,197.5 -67.917,254.583c-15.417,10.417 -30.417,18.75 -32.917,18.75c-2.917,0 -4.583,14.167 -4.583,43.333c0,31.25 -2.083,50.833 -8.333,70c-13.75,45 -32.083,65.833 -118.75,135.833c-43.75,35 -81.667,65.417 -85,67.083c-6.667,3.75 -6.25,5 10.417,147.5c5.417,47.083 5.417,62.917 1.667,86.667c-7.5,44.167 -28.75,82.917 -67.5,122.083l-32.917,33.333l6.25,26.25c35,139.167 -71.667,265 -210.417,247.083c-17.083,-2.083 -36.667,-5.833 -44.167,-8.333c-12.5,-4.583 -13.75,-4.167 -45.833,27.917c-38.333,38.333 -67.917,54.583 -112.917,61.25c-25.417,3.333 -47.5,2.5 -135.417,-6.667c-57.5,-6.25 -105,-10.833 -105.417,-10.417c-12.083,21.25 -132.917,174.583 -147.917,187.917c-39.583,35.417 -99.583,55.417 -149.583,49.583c-19.167,-2.083 -19.583,-2.083 -24.583,11.667c-7.917,22.5 -37.5,65.417 -58.333,83.333c-42.5,37.917 -98.333,53.75 -156.667,45Zm1009.167,-597.917c18.333,-13.75 26.25,-30.417 26.25,-53.75c0,-27.083 -10.417,-46.25 -31.25,-58.333c-30.417,-17.917 -61.25,-12.917 -87.083,14.167c-10,10.417 -12.5,17.5 -14.167,37.083c-2.5,36.25 10.833,57.917 43.75,70c20.833,7.5 45.417,4.167 62.5,-9.167Zm-944.167,-2294.583c15.417,-10 32.917,-40.417 32.917,-57.083c0,-16.667 -17.5,-47.083 -32.917,-57.083c-25.417,-17.083 -68.333,-10.417 -87.083,13.333c-20.833,26.25 -20.833,61.25 0,87.5c18.75,23.75 61.667,30.417 87.083,13.333Zm-1345.833,1345.833c44.167,-29.583 44.167,-90 0,-114.583c-65.833,-37.083 -132.083,37.083 -88.333,98.333c18.333,26.25 62.083,34.167 88.333,16.25Zm1986.25,-1116.667l-26.25,-0.833l-1.25,386.667l-0.833,386.25l-82.083,-0.833l-81.667,-1.25l-9.583,-37.5c-12.917,-48.75 -52.083,-128.333 -86.25,-172.917c-52.083,-69.167 -130.833,-133.333 -209.583,-170.833c-144.583,-68.75 -315.833,-56.25 -401.667,29.167c-40.833,40.833 -58.333,84.583 -58.333,146.25c0,62.5 17.083,101.25 64.583,144.583c49.583,45 122.917,82.083 356.25,179.583c156.667,65.833 281.667,126.667 342.917,167.5c130,86.667 211.25,203.333 237.083,340c8.333,43.333 7.083,154.167 -2.083,197.083c-23.75,110.417 -70.833,197.917 -148.333,275.417c-102.083,102.083 -246.25,165.417 -416.667,182.5c-149.583,15.417 -280,-7.083 -442.083,-76.667c-64.167,-27.5 -85,-30.417 -109.167,-15.417c-22.917,14.167 -34.167,41.25 -34.167,82.083c0,40.833 10.417,73.75 38.333,122.5c35,60.417 144.583,189.583 169.167,199.167c17.083,6.25 67.083,6.667 78.75,0.417c5,-2.5 28.75,-23.333 52.917,-45.833c49.167,-46.667 58.75,-52.917 87.083,-56.25c30,-3.333 51.667,8.333 99.167,54.167c22.5,21.25 45.417,42.083 51.25,45.833c14.167,10 67.917,9.583 85.417,-0.417c14.167,-7.917 47.917,-43.333 145,-152.083l65.833,-73.75l125.417,0c142.917,0 143.333,0 182.917,-37.5c25,-23.75 28.75,-37.5 28.75,-108.333c0,-65 3.75,-82.083 22.083,-102.917c21.25,-23.75 31.25,-26.25 114.167,-26.25c94.167,0 99.167,-2.083 130,-47.917l21.25,-32.083l0,-130.833c0,-120.417 0.417,-131.25 7.5,-137.917c4.167,-4.167 50.417,-47.917 102.5,-97.083c52.083,-49.167 97.5,-94.167 100.417,-100c8.75,-16.667 15.417,-57.917 12.5,-74.167c-4.583,-23.75 -10.833,-33.333 -58.333,-83.75c-47.5,-50.833 -57.083,-66.25 -57.083,-94.167c0,-29.167 10.833,-46.25 62.917,-99.583c51.667,-53.333 58.75,-65 58.75,-98.75c0,-7.917 -2.917,-24.167 -6.25,-36.25c-5.833,-19.583 -13.75,-27.917 -114.583,-124.167l-108.333,-102.917l0,-265l-17.5,-25.833c-10,-14.167 -25,-31.667 -33.75,-38.75l-16.25,-12.917l-77.917,-2.083c-76.667,-2.083 -78.333,-2.5 -95.417,-13.75c-29.167,-19.167 -35.417,-36.667 -38.333,-107.083c-2.917,-68.75 -7.083,-82.5 -31.667,-103.75c-22.5,-20 -46.667,-29.583 -77.5,-30.833Zm-282.5,-39.583c-26.25,-49.583 -148.982,-186.25 -159.557,-186.25l-72.527,0l-53.75,51.667c-62.083,59.167 -74.583,67.083 -109.167,67.083c-31.25,0 -42.5,-7.083 -100.833,-64.583c-24.167,-24.167 -50.833,-46.25 -59.167,-50c-19.583,-7.917 -41.667,-7.917 -69.167,0c-20.417,6.25 -25.417,11.25 -96.25,90.833c-40.833,46.25 -81.667,92.917 -90.417,103.75l-16.25,19.583l-131.25,0.417c-147.083,0.417 -148.75,0.417 -183.333,31.667c-27.917,25.417 -30,32.5 -32.917,112.083c-2.917,78.75 -4.167,83.333 -32.083,105c-15.417,11.667 -15.833,11.667 -92.917,13.75c-83.75,2.5 -91.667,4.583 -113.333,27.917c-6.25,6.25 -17.083,20.833 -24.167,32.083l-12.917,20.833l0,263.75l-109.167,104.167c-87.5,82.917 -110.833,107.083 -115,120c-7.083,20.833 -7.5,60.417 -0.833,73.333c2.917,5.417 27.083,32.5 54.167,60c26.667,27.5 52.083,56.667 56.25,64.583c10,18.333 10.417,55.833 1.25,72.917c-3.75,7.083 -27.917,35 -53.333,62.5c-25.417,27.5 -49.583,55.833 -53.333,62.5c-9.167,16.667 -8.333,57.083 1.667,81.667c6.25,15.833 27.5,38.333 111.25,118.333l102.917,98.75l0,123.75c0,139.167 -0.833,134.167 32.917,174.583c25.833,30.417 33.333,32.917 111.25,35.417c70.417,2.083 83.333,5.417 105,25.417c20.833,18.75 23.333,29.583 25.833,104.583c2.083,67.917 2.5,71.667 13.333,90.417c15.417,25.417 53.333,48.333 81.667,49.167l9.167,0l0,-770.833l182.5,0l5,27.917c7.917,47.5 28.333,105 58.333,165.833c86.667,175.417 229.167,286.25 408.333,317.083c47.5,8.333 133.75,5.833 172.5,-4.583c79.583,-21.667 147.917,-82.083 174.167,-154.167c10.833,-30 15,-102.083 7.917,-135.417c-19.583,-90.833 -103.333,-158.333 -285.833,-230.417c-235,-92.917 -290.833,-115.833 -346.667,-143.333c-162.917,-79.583 -272.917,-178.75 -326.25,-293.75c-31.667,-67.917 -46.667,-161.667 -37.917,-237.917c20.417,-183.75 130.833,-335.417 307.5,-423.333c95.417,-47.083 177.917,-67.917 297.083,-73.75c88.75,-4.583 172.917,7.917 277.083,41.25c98.75,31.667 128.333,33.75 159.583,11.25c36.687,-26.584 54.376,-88.449 50.255,-152.479c-2.338,-36.326 -11.696,-73.349 -28.588,-105.021Zm-369.583,2543.333c47.083,-20 56.667,-80 18.75,-112.917c-28.333,-23.75 -63.75,-22.5 -89.583,3.333c-50.417,50 5.833,137.5 70.833,109.583Zm-930.417,-2347.5c5.833,-4.583 15,-14.167 20,-22.083c8.333,-11.667 9.583,-18.333 8.333,-38.333c-1.25,-15 -5,-27.917 -10,-35.417c-10,-13.333 -40.833,-30 -55.833,-30c-16.667,0 -47.083,17.5 -57.083,32.917c-11.25,16.667 -12.917,48.75 -3.75,66.25c7.917,15.417 24.167,29.583 38.333,34.167c16.667,5.417 47.5,1.25 60,-7.5Zm1891.667,1.25c17.5,-9.167 30.417,-29.583 32.5,-52.5c3.333,-35 -14.583,-60.417 -49.167,-70.833c-34.583,-10.417 -74.583,13.75 -83.333,50c-4.167,17.917 -3.75,22.917 3.333,38.75c18.333,40.833 57.5,55 96.667,34.583Zm-1905.833,1915c30.833,-14.167 47.083,-46.25 38.75,-77.5c-6.25,-22.917 -13.75,-32.5 -33.333,-43.333c-44.167,-25 -99.583,7.917 -99.583,58.75c0,31.25 16.25,55.417 43.75,65c18.333,6.25 31.25,5.833 50.417,-2.917Zm2310.417,-955.833c31.667,-21.25 41.667,-57.083 25,-89.583c-21.667,-42.5 -88.333,-45.417 -115.833,-5c-13.333,19.167 -13.333,56.25 -0.417,73.333c17.917,23.333 30.833,30 57.917,30.417c13.333,0.417 23.333,-2.5 33.333,-9.167Z" style="fill:url(#_Radial1);"/></g><defs><radialGradient id="_Radial1" cx="0" cy="0" r="1" gradientUnits="userSpaceOnUse" gradientTransform="matrix(1515.027373,-137.183733,137.183733,1515.027373,1909.8148,1788.526986)"><stop offset="0" style="stop-color:#929292;stop-opacity:1"/><stop offset="0.29" style="stop-color:#948281;stop-opacity:1"/><stop offset="1" style="stop-color:#a8140a;stop-opacity:1"/></radialGradient></defs></svg>